<svg width="813" height="51" viewBox="0 0 813 51" fill="none" xmlns="http://www.w3.org/2000/svg">
<path d="M31.0273 23.7227C35.5508 24.7773 38.7266 26.0547 40.5547 27.5547C43.1797 29.6875 44.4922 32.4531 44.4922 35.8516C44.4922 39.4375 43.0508 42.4023 40.168 44.7461C36.6289 47.582 31.4844 49 24.7344 49H0.511719V47.6992C2.71484 47.6992 4.20312 47.5 4.97656 47.1016C5.77344 46.6797 6.32422 46.1406 6.62891 45.4844C6.95703 44.8281 7.12109 43.2109 7.12109 40.6328V9.69531C7.12109 7.11719 6.95703 5.5 6.62891 4.84375C6.32422 4.16406 5.77344 3.625 4.97656 3.22656C4.17969 2.82813 2.69141 2.62891 0.511719 2.62891V1.32812H23.3633C28.8242 1.32812 32.6914 1.82031 34.9648 2.80469C37.2383 3.76562 39.0312 5.21875 40.3438 7.16406C41.6562 9.08594 42.3125 11.1367 42.3125 13.3164C42.3125 15.6133 41.4805 17.6641 39.8164 19.4688C38.1523 21.25 35.2227 22.668 31.0273 23.7227ZM18.2305 22.7734C21.5586 22.7734 24.0078 22.3984 25.5781 21.6484C27.1719 20.8984 28.3906 19.8438 29.2344 18.4844C30.0781 17.125 30.5 15.3906 30.5 13.2812C30.5 11.1719 30.0781 9.44922 29.2344 8.11328C28.4141 6.75391 27.2305 5.72266 25.6836 5.01953C24.1367 4.31641 21.6523 3.97656 18.2305 4V22.7734ZM18.2305 25.5156V40.8086L18.1953 42.5664C18.1953 43.832 18.5117 44.793 19.1445 45.4492C19.8008 46.082 20.7617 46.3984 22.0273 46.3984C23.9023 46.3984 25.625 45.9883 27.1953 45.168C28.7891 44.3242 30.0078 43.1172 30.8516 41.5469C31.6953 39.9531 32.1172 38.1836 32.1172 36.2383C32.1172 34.0117 31.6016 32.0195 30.5703 30.2617C29.5391 28.4805 28.1211 27.2383 26.3164 26.5352C24.5117 25.832 21.8164 25.4922 18.2305 25.5156ZM66.1484 27.2734V40.6328C66.1484 43.2109 66.3008 44.8398 66.6055 45.5195C66.9336 46.1758 67.4961 46.7031 68.293 47.1016C69.0898 47.5 70.5781 47.6992 72.7578 47.6992V49H48.3594V47.6992C50.5625 47.6992 52.0508 47.5 52.8242 47.1016C53.6211 46.6797 54.1719 46.1406 54.4766 45.4844C54.8047 44.8281 54.9688 43.2109 54.9688 40.6328V9.69531C54.9688 7.11719 54.8047 5.5 54.4766 4.84375C54.1719 4.16406 53.6211 3.625 52.8242 3.22656C52.0273 2.82813 50.5391 2.62891 48.3594 2.62891V1.32812H70.5078C76.2734 1.32812 80.4922 1.72656 83.1641 2.52344C85.8359 3.32031 88.0156 4.79688 89.7031 6.95312C91.3906 9.08594 92.2344 11.5938 92.2344 14.4766C92.2344 17.9922 90.9688 20.8984 88.4375 23.1953C86.8203 24.6484 84.5586 25.7383 81.6523 26.4648L93.1133 42.6016C94.6133 44.6875 95.6797 45.9883 96.3125 46.5039C97.2734 47.2305 98.3867 47.6289 99.6523 47.6992V49H84.6406L69.2773 27.2734H66.1484ZM66.1484 3.89453V24.7773H68.1523C71.4102 24.7773 73.8477 24.4844 75.4648 23.8984C77.082 23.2891 78.3477 22.2109 79.2617 20.6641C80.1992 19.0938 80.668 17.0547 80.668 14.5469C80.668 10.9141 79.8125 8.23047 78.1016 6.49609C76.4141 4.76172 73.6836 3.89453 69.9102 3.89453H66.1484ZM129.008 35.4297H112.168L110.164 40.0703C109.508 41.6172 109.18 42.8945 109.18 43.9023C109.18 45.2383 109.719 46.2227 110.797 46.8555C111.43 47.2305 112.988 47.5117 115.473 47.6992V49H99.6172V47.6992C101.328 47.4414 102.734 46.7383 103.836 45.5898C104.938 44.418 106.297 42.0156 107.914 38.3828L124.965 0.34375H125.633L142.824 39.4375C144.465 43.1406 145.812 45.4727 146.867 46.4336C147.664 47.1602 148.789 47.582 150.242 47.6992V49H127.18V47.6992H128.129C129.98 47.6992 131.281 47.4414 132.031 46.9258C132.547 46.5508 132.805 46.0117 132.805 45.3086C132.805 44.8867 132.734 44.4531 132.594 44.0078C132.547 43.7969 132.195 42.918 131.539 41.3711L129.008 35.4297ZM127.812 32.8281L120.711 16.4102L113.398 32.8281H127.812ZM195.031 1.32812L167.012 46.3281H176.082C180.371 46.3281 183.371 46.0586 185.082 45.5195C187.871 44.6758 190.273 43.1289 192.289 40.8789C194.305 38.6055 195.699 35.5703 196.473 31.7734H197.844L195.91 49H152.246L180.301 3.92969H173.234C170.492 3.92969 168.688 4.01172 167.82 4.17578C166.18 4.48047 164.633 5.08984 163.18 6.00391C161.75 6.89453 160.555 8.08984 159.594 9.58984C158.656 11.0898 157.918 12.9883 157.379 15.2852H156.078L157.379 1.32812H195.031ZM225.477 47.6992V49H200.551V47.6992H202.133C203.516 47.6992 204.629 47.4531 205.473 46.9609C206.082 46.6328 206.551 46.0703 206.879 45.2734C207.137 44.7109 207.266 43.2344 207.266 40.8438V9.48438C207.266 7.04688 207.137 5.52344 206.879 4.91406C206.621 4.30469 206.094 3.77734 205.297 3.33203C204.523 2.86328 203.469 2.62891 202.133 2.62891H200.551V1.32812H225.477V2.62891H223.895C222.512 2.62891 221.398 2.875 220.555 3.36719C219.945 3.69531 219.465 4.25781 219.113 5.05469C218.855 5.61719 218.727 7.09375 218.727 9.48438V40.8438C218.727 43.2812 218.855 44.8047 219.113 45.4141C219.395 46.0234 219.922 46.5625 220.695 47.0312C221.492 47.4766 222.559 47.6992 223.895 47.6992H225.477ZM272.621 32.2656L270.828 49H228.5V47.6992H230.082C231.465 47.6992 232.578 47.4531 233.422 46.9609C234.031 46.6328 234.5 46.0703 234.828 45.2734C235.086 44.7109 235.215 43.2344 235.215 40.8438V9.48438C235.215 7.04688 235.086 5.52344 234.828 4.91406C234.57 4.30469 234.043 3.77734 233.246 3.33203C232.473 2.86328 231.418 2.62891 230.082 2.62891H228.5V1.32812H253.918V2.62891H251.844C250.461 2.62891 249.348 2.875 248.504 3.36719C247.895 3.69531 247.414 4.25781 247.062 5.05469C246.805 5.61719 246.676 7.09375 246.676 9.48438V39.8594C246.676 42.2969 246.816 43.8555 247.098 44.5352C247.379 45.1914 247.93 45.6836 248.75 46.0117C249.336 46.2227 250.754 46.3281 253.004 46.3281H256.977C259.508 46.3281 261.617 45.8828 263.305 44.9922C264.992 44.1016 266.445 42.6953 267.664 40.7734C268.906 38.8516 270.078 36.0156 271.18 32.2656H272.621ZM338.855 0.238281V17.043H337.555C335.984 12.4492 333.629 8.95703 330.488 6.56641C327.348 4.17578 323.914 2.98047 320.188 2.98047C316.625 2.98047 313.66 3.98828 311.293 6.00391C308.926 7.99609 307.25 10.7852 306.266 14.3711C305.281 17.957 304.789 21.6367 304.789 25.4102C304.789 29.9805 305.328 33.9883 306.406 37.4336C307.484 40.8789 309.219 43.4102 311.609 45.0273C314.023 46.6445 316.883 47.4531 320.188 47.4531C321.336 47.4531 322.508 47.3359 323.703 47.1016C324.922 46.8438 326.164 46.4805 327.43 46.0117V36.0977C327.43 34.2227 327.301 33.0156 327.043 32.4766C326.785 31.9141 326.246 31.4102 325.426 30.9648C324.629 30.5195 323.656 30.2969 322.508 30.2969H321.277V28.9961H344.445V30.2969C342.688 30.4141 341.457 30.6602 340.754 31.0352C340.074 31.3867 339.547 31.9844 339.172 32.8281C338.961 33.2734 338.855 34.3633 338.855 36.0977V46.0117C335.809 47.3711 332.633 48.3906 329.328 49.0703C326.047 49.7734 322.637 50.125 319.098 50.125C314.574 50.125 310.812 49.5156 307.812 48.2969C304.836 47.0547 302.199 45.4375 299.902 43.4453C297.629 41.4297 295.848 39.168 294.559 36.6602C292.918 33.4258 292.098 29.8047 292.098 25.7969C292.098 18.625 294.617 12.5664 299.656 7.62109C304.695 2.67578 311.035 0.203125 318.676 0.203125C321.043 0.203125 323.176 0.390625 325.074 0.765625C326.105 0.953125 327.77 1.49219 330.066 2.38281C332.387 3.25 333.758 3.68359 334.18 3.68359C334.836 3.68359 335.445 3.44922 336.008 2.98047C336.57 2.48828 337.086 1.57422 337.555 0.238281H338.855ZM373.027 0.660156C380.621 0.378906 386.785 2.59375 391.52 7.30469C396.277 12.0156 398.656 17.9102 398.656 24.9883C398.656 31.0352 396.887 36.3555 393.348 40.9492C388.66 47.043 382.039 50.0898 373.484 50.0898C364.906 50.0898 358.273 47.1836 353.586 41.3711C349.883 36.7773 348.031 31.3281 348.031 25.0234C348.031 17.9453 350.434 12.0508 355.238 7.33984C360.066 2.60547 365.996 0.378906 373.027 0.660156ZM373.449 2.91016C369.09 2.91016 365.773 5.13672 363.5 9.58984C361.648 13.2461 360.723 18.4961 360.723 25.3398C360.723 33.4727 362.152 39.4844 365.012 43.375C367.004 46.0938 369.793 47.4531 373.379 47.4531C375.793 47.4531 377.809 46.8672 379.426 45.6953C381.488 44.1953 383.094 41.8047 384.242 38.5234C385.391 35.2188 385.965 30.918 385.965 25.6211C385.965 19.3164 385.379 14.6055 384.207 11.4883C383.035 8.34766 381.535 6.13281 379.707 4.84375C377.902 3.55469 375.816 2.91016 373.449 2.91016ZM446.715 32.2656L444.922 49H402.594V47.6992H404.176C405.559 47.6992 406.672 47.4531 407.516 46.9609C408.125 46.6328 408.594 46.0703 408.922 45.2734C409.18 44.7109 409.309 43.2344 409.309 40.8438V9.48438C409.309 7.04688 409.18 5.52344 408.922 4.91406C408.664 4.30469 408.137 3.77734 407.34 3.33203C406.566 2.86328 405.512 2.62891 404.176 2.62891H402.594V1.32812H428.012V2.62891H425.938C424.555 2.62891 423.441 2.875 422.598 3.36719C421.988 3.69531 421.508 4.25781 421.156 5.05469C420.898 5.61719 420.77 7.09375 420.77 9.48438V39.8594C420.77 42.2969 420.91 43.8555 421.191 44.5352C421.473 45.1914 422.023 45.6836 422.844 46.0117C423.43 46.2227 424.848 46.3281 427.098 46.3281H431.07C433.602 46.3281 435.711 45.8828 437.398 44.9922C439.086 44.1016 440.539 42.6953 441.758 40.7734C443 38.8516 444.172 36.0156 445.273 32.2656H446.715ZM450.23 49V47.6992H451.812C453.195 47.6992 454.25 47.4883 454.977 47.0664C455.727 46.6211 456.277 46.0234 456.629 45.2734C456.84 44.7812 456.945 43.3047 456.945 40.8438V9.48438C456.945 7.04688 456.816 5.52344 456.559 4.91406C456.301 4.30469 455.773 3.77734 454.977 3.33203C454.203 2.86328 453.148 2.62891 451.812 2.62891H450.23V1.32812H471.57C477.266 1.32812 481.848 2.10156 485.316 3.64844C489.559 5.54688 492.77 8.41797 494.949 12.2617C497.152 16.1055 498.254 20.4531 498.254 25.3047C498.254 28.6562 497.715 31.75 496.637 34.5859C495.559 37.3984 494.164 39.7305 492.453 41.582C490.742 43.4102 488.762 44.8867 486.512 46.0117C484.285 47.1133 481.555 47.9688 478.32 48.5781C476.891 48.8594 474.641 49 471.57 49H450.23ZM468.406 4.03516V41.2305C468.406 43.1992 468.5 44.4062 468.688 44.8516C468.875 45.2969 469.191 45.6367 469.637 45.8711C470.27 46.2227 471.184 46.3984 472.379 46.3984C476.293 46.3984 479.281 45.0625 481.344 42.3906C484.156 38.7812 485.562 33.1797 485.562 25.5859C485.562 19.4688 484.602 14.582 482.68 10.9258C481.156 8.06641 479.199 6.12109 476.809 5.08984C475.121 4.36328 472.32 4.01172 468.406 4.03516ZM520.93 4.07031V23.4766H521.879C524.902 23.4766 527.094 22.5273 528.453 20.6289C529.812 18.7305 530.68 15.9297 531.055 12.2266H532.391V37.1875H531.055C530.773 34.4688 530.176 32.2422 529.262 30.5078C528.371 28.7734 527.328 27.6133 526.133 27.0273C524.938 26.418 523.203 26.1133 520.93 26.1133V39.543C520.93 42.168 521.035 43.7734 521.246 44.3594C521.48 44.9453 521.902 45.4258 522.512 45.8008C523.121 46.1758 524.105 46.3633 525.465 46.3633H528.312C532.766 46.3633 536.328 45.332 539 43.2695C541.695 41.207 543.629 38.0664 544.801 33.8477H546.102L543.957 49H502.754V47.6992H504.336C505.719 47.6992 506.832 47.4531 507.676 46.9609C508.285 46.6328 508.754 46.0703 509.082 45.2734C509.34 44.7109 509.469 43.2344 509.469 40.8438V9.48438C509.469 7.32813 509.41 6.00391 509.293 5.51172C509.059 4.69141 508.625 4.05859 507.992 3.61328C507.102 2.95703 505.883 2.62891 504.336 2.62891H502.754V1.32812H542.656V15.4258H541.32C540.641 11.9805 539.68 9.50781 538.438 8.00781C537.219 6.50781 535.484 5.40625 533.234 4.70312C531.922 4.28125 529.461 4.07031 525.852 4.07031H520.93ZM567.266 1.32812L590.785 30.8945V10.3984C590.785 7.53906 590.375 5.60547 589.555 4.59766C588.43 3.23828 586.543 2.58203 583.895 2.62891V1.32812H599.645V2.62891C597.629 2.88672 596.27 3.22656 595.566 3.64844C594.887 4.04687 594.348 4.71484 593.949 5.65234C593.574 6.56641 593.387 8.14844 593.387 10.3984V50.0898H592.191L559.953 10.3984V40.7031C559.953 43.4453 560.574 45.2969 561.816 46.2578C563.082 47.2188 564.523 47.6992 566.141 47.6992H567.266V49H550.355V47.6992C552.98 47.6758 554.809 47.1367 555.84 46.082C556.871 45.0273 557.387 43.2344 557.387 40.7031V7.05859L556.367 5.79297C555.359 4.52734 554.469 3.69531 553.695 3.29688C552.922 2.89844 551.809 2.67578 550.355 2.62891V1.32812H567.266ZM651.395 23.7227C655.918 24.7773 659.094 26.0547 660.922 27.5547C663.547 29.6875 664.859 32.4531 664.859 35.8516C664.859 39.4375 663.418 42.4023 660.535 44.7461C656.996 47.582 651.852 49 645.102 49H620.879V47.6992C623.082 47.6992 624.57 47.5 625.344 47.1016C626.141 46.6797 626.691 46.1406 626.996 45.4844C627.324 44.8281 627.488 43.2109 627.488 40.6328V9.69531C627.488 7.11719 627.324 5.5 626.996 4.84375C626.691 4.16406 626.141 3.625 625.344 3.22656C624.547 2.82813 623.059 2.62891 620.879 2.62891V1.32812H643.73C649.191 1.32812 653.059 1.82031 655.332 2.80469C657.605 3.76562 659.398 5.21875 660.711 7.16406C662.023 9.08594 662.68 11.1367 662.68 13.3164C662.68 15.6133 661.848 17.6641 660.184 19.4688C658.52 21.25 655.59 22.668 651.395 23.7227ZM638.598 22.7734C641.926 22.7734 644.375 22.3984 645.945 21.6484C647.539 20.8984 648.758 19.8438 649.602 18.4844C650.445 17.125 650.867 15.3906 650.867 13.2812C650.867 11.1719 650.445 9.44922 649.602 8.11328C648.781 6.75391 647.598 5.72266 646.051 5.01953C644.504 4.31641 642.02 3.97656 638.598 4V22.7734ZM638.598 25.5156V40.8086L638.562 42.5664C638.562 43.832 638.879 44.793 639.512 45.4492C640.168 46.082 641.129 46.3984 642.395 46.3984C644.27 46.3984 645.992 45.9883 647.562 45.168C649.156 44.3242 650.375 43.1172 651.219 41.5469C652.062 39.9531 652.484 38.1836 652.484 36.2383C652.484 34.0117 651.969 32.0195 650.938 30.2617C649.906 28.4805 648.488 27.2383 646.684 26.5352C644.879 25.832 642.184 25.4922 638.598 25.5156ZM695.199 0.660156C702.793 0.378906 708.957 2.59375 713.691 7.30469C718.449 12.0156 720.828 17.9102 720.828 24.9883C720.828 31.0352 719.059 36.3555 715.52 40.9492C710.832 47.043 704.211 50.0898 695.656 50.0898C687.078 50.0898 680.445 47.1836 675.758 41.3711C672.055 36.7773 670.203 31.3281 670.203 25.0234C670.203 17.9453 672.605 12.0508 677.41 7.33984C682.238 2.60547 688.168 0.378906 695.199 0.660156ZM695.621 2.91016C691.262 2.91016 687.945 5.13672 685.672 9.58984C683.82 13.2461 682.895 18.4961 682.895 25.3398C682.895 33.4727 684.324 39.4844 687.184 43.375C689.176 46.0938 691.965 47.4531 695.551 47.4531C697.965 47.4531 699.98 46.8672 701.598 45.6953C703.66 44.1953 705.266 41.8047 706.414 38.5234C707.562 35.2188 708.137 30.918 708.137 25.6211C708.137 19.3164 707.551 14.6055 706.379 11.4883C705.207 8.34766 703.707 6.13281 701.879 4.84375C700.074 3.55469 697.988 2.91016 695.621 2.91016ZM774.617 1.32812V2.62891C773.047 2.83984 771.84 3.29688 770.996 4C769.824 4.98438 767.973 7.66797 765.441 12.0508L755.105 29.3125V40.8438C755.105 43.3047 755.234 44.8398 755.492 45.4492C755.75 46.0352 756.254 46.5625 757.004 47.0312C757.777 47.4766 758.797 47.6992 760.062 47.6992H762.734V49H735.98V47.6992H738.477C739.883 47.6992 740.996 47.4531 741.816 46.9609C742.426 46.6328 742.906 46.0703 743.258 45.2734C743.516 44.7109 743.645 43.2344 743.645 40.8438V31.2812L732.43 10.8555C730.203 6.82422 728.633 4.45703 727.719 3.75391C726.805 3.02734 725.586 2.65234 724.062 2.62891V1.32812H746.914V2.62891H745.895C744.512 2.62891 743.539 2.82813 742.977 3.22656C742.438 3.625 742.168 4.04687 742.168 4.49219C742.168 5.33594 743.105 7.45703 744.98 10.8555L753.594 26.6406L762.172 12.2617C764.305 8.74609 765.371 6.41406 765.371 5.26562C765.371 4.63281 765.066 4.10547 764.457 3.68359C763.66 3.09766 762.195 2.74609 760.062 2.62891V1.32812H774.617ZM809.281 0.238281L809.668 16.1289H808.227C807.547 12.1445 805.871 8.94531 803.199 6.53125C800.551 4.09375 797.68 2.875 794.586 2.875C792.195 2.875 790.297 3.51953 788.891 4.80859C787.508 6.07422 786.816 7.53906 786.816 9.20312C786.816 10.2578 787.062 11.1953 787.555 12.0156C788.234 13.1172 789.324 14.207 790.824 15.2852C791.926 16.0586 794.469 17.4297 798.453 19.3984C804.031 22.1406 807.793 24.7305 809.738 27.168C811.66 29.6055 812.621 32.3945 812.621 35.5352C812.621 39.5195 811.062 42.9531 807.945 45.8359C804.852 48.6953 800.914 50.125 796.133 50.125C794.633 50.125 793.215 49.9727 791.879 49.668C790.543 49.3633 788.867 48.7891 786.852 47.9453C785.727 47.4766 784.801 47.2422 784.074 47.2422C783.465 47.2422 782.82 47.4766 782.141 47.9453C781.461 48.4141 780.91 49.1289 780.488 50.0898H779.188V32.0898H780.488C781.52 37.1523 783.5 41.0195 786.43 43.6914C789.383 46.3398 792.559 47.6641 795.957 47.6641C798.582 47.6641 800.668 46.9492 802.215 45.5195C803.785 44.0898 804.57 42.4258 804.57 40.5273C804.57 39.4023 804.266 38.3125 803.656 37.2578C803.07 36.2031 802.168 35.207 800.949 34.2695C799.73 33.3086 797.574 32.0664 794.48 30.543C790.145 28.4102 787.027 26.5938 785.129 25.0938C783.23 23.5938 781.766 21.918 780.734 20.0664C779.727 18.2148 779.223 16.1758 779.223 13.9492C779.223 10.1523 780.617 6.91797 783.406 4.24609C786.195 1.57422 789.711 0.238281 793.953 0.238281C795.5 0.238281 797 0.425781 798.453 0.800781C799.555 1.08203 800.891 1.60938 802.461 2.38281C804.055 3.13281 805.168 3.50781 805.801 3.50781C806.41 3.50781 806.891 3.32031 807.242 2.94531C807.594 2.57031 807.922 1.66797 808.227 0.238281H809.281Z" fill="#030300"/>
</svg>
